<?xml version="1.0" standalone="no"?>
<!DOCTYPE svg PUBLIC "-//W3C//DTD SVG 20010904//EN"
 "http://www.w3.org/TR/2001/REC-SVG-20010904/DTD/svg10.dtd">
<svg version="1.0" xmlns="http://www.w3.org/2000/svg"
 width="707.000000pt" height="1280.000000pt" viewBox="0 0 707.000000 1280.000000"
 preserveAspectRatio="xMidYMid meet">
<metadata>
Created by potrace 1.15, written by Peter Selinger 2001-2017
</metadata>
<g transform="translate(0.000000,1280.000000) scale(0.100000,-0.100000)"
fill="currentColor" stroke="none">
<path d="M2670 12405 c-470 -217 -881 -406 -912 -420 l-58 -26 0 -160 0 -159
160 0 160 0 0 -765 0 -765 -265 0 -265 0 0 55 0 55 -115 0 -115 0 0 -357 c0
-333 1 -360 19 -389 36 -60 60 -64 355 -64 178 0 266 -3 266 -10 0 -10 -220
-3260 -270 -4000 -11 -162 -29 -423 -40 -580 -11 -157 -74 -1093 -140 -2080
-66 -987 -123 -1814 -126 -1837 l-5 -43 -660 0 -659 0 0 -430 0 -430 3535 0
3535 0 0 430 0 430 -670 0 -670 0 0 26 c0 21 -113 1712 -190 2832 -11 160 -29
425 -40 587 -11 162 -29 427 -40 588 -11 160 -60 893 -110 1627 -50 734 -99
1466 -110 1625 -58 846 -80 1180 -80 1215 l0 39 274 3 c394 4 367 -30 364 463
l-3 350 -112 3 -113 3 0 -61 0 -60 -265 0 -265 0 0 768 0 767 155 -3 155 -3 0
163 -1 163 -382 177 c-210 97 -619 287 -909 422 -291 136 -529 246 -530 245
-2 0 -388 -178 -858 -394z m2435 -10460 l0 -1085 -642 0 -643 0 0 1085 0 1085
643 0 642 0 0 -1085z"/>
</g>
</svg>
