<?xml version="1.0" encoding="UTF-8" standalone="no" ?>
<!DOCTYPE svg PUBLIC "-//W3C//DTD SVG 1.1//EN" "http://www.w3.org/Graphics/SVG/1.1/DTD/svg11.dtd">
<svg xmlns="http://www.w3.org/2000/svg" xmlns:xlink="http://www.w3.org/1999/xlink" version="1.1" width="1280" height="1024" viewBox="0 0 1280 1024" xml:space="preserve">
<desc>Created with Fabric.js 4.4.0</desc>
<defs>
</defs>
<g transform="matrix(1 0 0 1 640 512)" id="background-logo"  >
<rect style="stroke: none; stroke-width: 0; stroke-dasharray: none; stroke-linecap: butt; stroke-dashoffset: 0; stroke-linejoin: miter; stroke-miterlimit: 4; fill: rgb(0,0,0); fill-rule: nonzero; opacity: 1;"  paint-order="stroke"  x="-640" y="-512" rx="0" ry="0" width="1280" height="1024" />
</g>
<g transform="matrix(1.9211538461538462 0 0 1.9211538461538462 640.6756640432858 399.89977638008634)" id="logo-logo"  >
<g style=""  paint-order="stroke"   >
		<g transform="matrix(0.028444471663161882 0 0 0.028444471663161882 0 0)"  >
<linearGradient id="SVGID_1_2_179839" gradientUnits="userSpaceOnUse" gradientTransform="matrix(1 0 0 1 0 0)"  x1="5282.49" y1="4999.51" x2="6324.24" y2="-534.81">
<stop offset="0%" style="stop-color:rgb(17,97,167);stop-opacity: 1"/>
<stop offset="100%" style="stop-color:rgb(83,166,238);stop-opacity: 1"/>
</linearGradient>
<path style="stroke: none; stroke-width: 1; stroke-dasharray: none; stroke-linecap: butt; stroke-dashoffset: 0; stroke-linejoin: miter; stroke-miterlimit: 4; fill: url(#SVGID_1_2_179839); fill-rule: evenodd; opacity: 1;"  paint-order="stroke"  transform=" translate(-5138.99, -2064.35)" d="M 2640.82 1487.91 L 3253.4900000000002 2100.58 L 2640.82 1643.04 L 2028.15 2100.58 L 2640.82 1487.9099999999999 z M 3306.34 2153.42 L 3308.55 2155.63 L 1335.4600000000003 4128.72 L 2.2737367544323206e-13 4128.72 L 1975.3000000000002 2153.42 L 2357.5 2011.66 L 2331.64 2149.09 L 2529.44 2040.2500000000002 L 2640.81 2228.65 L 2752.18 2040.25 L 2949.98 2149.09 L 2924.12 2011.66 L 3306.3199999999997 2153.42 z M 9610.25 2808.79 L 10222.93 3421.46 L 9610.25 2963.92 L 8997.58 3421.46 L 9610.25 2808.79 z M 10275.77 3474.3 L 10277.98 3476.51 L 9625.77 4128.72 L 8290.32 4128.72 L 8944.74 3474.3 L 9326.94 3332.54 L 9301.08 3469.97 L 9498.88 3361.1299999999997 L 9610.25 3549.5399999999995 L 9721.62 3361.1299999999997 L 9919.42 3469.97 L 9893.56 3332.54 L 10275.76 3474.3 z M 8785.33 1975.65 L 9453.06 2643.37 L 7967.709999999999 4128.719999999999 L 6632.259999999999 4128.719999999999 L 8785.33 1975.6499999999992 z M 7947.44 1155.48 L 8560.109999999999 1768.15 L 7947.439999999999 1310.6100000000001 L 7334.769999999999 1768.15 L 7947.439999999999 1155.48 z M 8612.949999999999 1820.99 L 8615.159999999998 1823.2 L 6309.639999999998 4128.71 L 4974.189999999998 4128.71 L 7281.919999999998 1820.98 L 7664.119999999998 1679.22 L 7638.259999999998 1816.65 L 7836.069999999999 1707.8100000000002 L 7947.439999999999 1896.2100000000003 L 8058.809999999999 1707.8100000000002 L 8256.619999999999 1816.65 L 8230.759999999998 1679.22 L 8612.96 1820.98 z M 6617.559999999999 827.29 L 7285.289999999999 1495.01 L 4651.589999999999 4128.71 L 3316.1399999999994 4128.71 L 6617.5599999999995 827.29 z M 5786.799999999998 -0.01999999999998181 L 6399.469999999998 612.65 L 5786.799999999998 155.10999999999996 L 5174.129999999998 612.65 L 5786.799999999998 -0.01999999999998181 z M 6452.309999999999 665.49 L 6454.519999999999 667.7 L 2993.5199999999986 4128.7 L 1658.0599999999986 4128.7 L 5121.269999999999 665.4899999999998 L 5503.469999999998 523.7299999999998 L 5477.609999999999 661.1599999999999 L 5675.409999999999 552.3199999999998 L 5786.779999999999 740.7199999999998 L 5898.149999999999 552.3199999999998 L 6095.949999999999 661.1599999999999 L 6070.089999999999 523.7299999999998 L 6452.289999999999 665.4899999999998 z" stroke-linecap="round" />
</g>
</g>
</g>
<g transform="matrix(1.9211538461538462 0 0 1.9211538461538462 640.5066025048244 602.1943105087594)" id="text-logo"  >
<g style=""  paint-order="stroke"   >
		<g transform="matrix(1 0 0 1 0 0)" id="text-logo-path-0"  >
<path style="stroke: none; stroke-width: 0; stroke-dasharray: none; stroke-linecap: butt; stroke-dashoffset: 0; stroke-linejoin: miter; stroke-miterlimit: 4; fill: rgb(46,147,234); fill-rule: nonzero; opacity: 1;"  paint-order="stroke"  transform=" translate(-232.67, 30.800000000000004)" d="M 13.64 -11.7 L 26.84 -11.7 L 29.04 0 L 37.84 0 L 26.14 -61.6 L 14.34 -61.6 L 2.64 0 L 11.44 0 Z M 15.4 -20.94 L 20.24 -46.2 L 25.08 -20.94 Z M 72.69 0 L 72.69 -8.8 L 55.09 -8.8 L 55.09 -61.6 L 46.29 -61.6 L 46.29 0 Z M 96.1 -52.8 L 106.3 -52.8 L 106.3 -61.6 L 77 -61.6 L 77 -52.8 L 87.3 -52.8 L 87.3 0 L 96.1 0 Z M 114.75 -61.6 L 114.75 0 L 123.55 0 L 123.55 -61.6 Z M 151.1 -52.8 L 161.3 -52.8 L 161.3 -61.6 L 132 -61.6 L 132 -52.8 L 142.3 -52.8 L 142.3 0 L 151.1 0 Z M 202.05 -14.7 L 202.05 -61.6 L 193.25 -61.6 L 193.25 -14.7 C 193.25 -10.65 189.9 -7.3 185.86 -7.3 C 181.81 -7.3 178.55 -10.65 178.55 -14.7 L 178.55 -61.6 L 169.75 -61.6 L 169.75 -14.7 C 169.75 -5.81 176.97 1.5 185.86 1.5 C 194.74 1.5 202.05 -5.81 202.05 -14.7 Z M 226.51 -61.6 L 210.41 -61.6 L 210.41 0 L 226.51 0 C 235.4 0 242.7 -7.22 242.7 -16.1 L 242.7 -45.5 C 242.7 -54.38 235.4 -61.6 226.51 -61.6 Z M 219.21 -8.8 L 219.21 -52.8 L 226.51 -52.8 C 230.56 -52.8 233.9 -49.54 233.9 -45.5 L 233.9 -16.1 C 233.9 -12.06 230.56 -8.8 226.51 -8.8 Z M 259.86 -35.2 L 259.86 -52.8 L 277.46 -52.8 L 277.46 -61.6 L 251.06 -61.6 L 251.06 0 L 277.46 0 L 277.46 -8.8 L 259.86 -8.8 L 259.86 -26.4 L 271.57 -26.4 L 271.57 -35.2 Z M 330.44 -7.3 C 326.39 -7.3 323.14 -10.65 323.14 -14.7 L 323.14 -46.9 C 323.14 -50.95 326.39 -54.3 330.44 -54.3 C 334.49 -54.3 337.83 -50.95 337.83 -46.9 L 346.63 -46.9 C 346.63 -55.79 339.33 -63.1 330.44 -63.1 C 321.55 -63.1 314.34 -55.79 314.34 -46.9 L 314.34 -14.7 C 314.34 -5.81 321.55 1.5 330.44 1.5 C 339.33 1.5 346.63 -5.81 346.63 -14.7 L 337.83 -14.7 C 337.83 -10.65 334.49 -7.3 330.44 -7.3 Z M 371.1 -63.1 C 362.21 -63.1 354.99 -55.79 354.99 -46.9 L 354.99 -14.7 C 354.99 -5.81 362.21 1.5 371.1 1.5 C 379.98 1.5 387.29 -5.81 387.29 -14.7 L 387.29 -46.9 C 387.29 -55.79 379.98 -63.1 371.1 -63.1 Z M 363.79 -14.7 L 363.79 -46.9 C 363.79 -50.95 367.05 -54.3 371.1 -54.3 C 375.14 -54.3 378.49 -50.95 378.49 -46.9 L 378.49 -14.7 C 378.49 -10.65 375.14 -7.3 371.1 -7.3 C 367.05 -7.3 363.79 -10.65 363.79 -14.7 Z M 424.95 -39.6 L 424.95 -46.9 C 424.95 -55 418.44 -61.6 410.34 -61.6 L 395.65 -61.6 L 395.65 0 L 404.45 0 L 404.45 -24.9 L 410.34 -24.9 C 413.51 -24.9 416.15 -22.26 416.15 -19.1 L 416.15 0 L 424.95 0 L 424.95 -19.1 C 424.95 -23.06 423.37 -26.66 420.82 -29.3 C 423.37 -31.94 424.95 -35.64 424.95 -39.6 Z M 404.45 -33.7 L 404.45 -52.8 L 410.34 -52.8 C 413.51 -52.8 416.15 -50.16 416.15 -46.9 L 416.15 -39.6 C 416.15 -36.34 413.51 -33.7 410.34 -33.7 Z M 448.1 -61.6 L 433.4 -61.6 L 433.4 0 L 442.2 0 L 442.2 -24.9 L 448.1 -24.9 C 456.19 -24.9 462.7 -31.5 462.7 -39.6 L 462.7 -46.9 C 462.7 -55 456.19 -61.6 448.1 -61.6 Z M 442.2 -33.7 L 442.2 -52.8 L 448.1 -52.8 C 451.26 -52.8 453.9 -50.16 453.9 -46.9 L 453.9 -39.6 C 453.9 -36.34 451.26 -33.7 448.1 -33.7 Z" stroke-linecap="round" />
</g>
</g>
</g>
<g transform="matrix(1.9211538461538462 0 0 1.9211538461538462 640.0681914373234 704.5704250315246)" id="tagline-2a24075d-e92c-4d98-9657-9e4e74b0a1ec-logo"  >
<g style=""  paint-order="stroke"   >
		<g transform="matrix(1 0 0 1 0 0)" id="tagline-2a24075d-e92c-4d98-9657-9e4e74b0a1ec-logo-path-0"  >
<path style="stroke: none; stroke-width: 0; stroke-dasharray: none; stroke-linecap: butt; stroke-dashoffset: 0; stroke-linejoin: miter; stroke-miterlimit: 4; fill: rgb(19,110,190); fill-rule: nonzero; opacity: 1;"  paint-order="stroke"  transform=" translate(-156.9255325443787, 11.5)" d="M 1.65 -17.29 L 1.65 -5.68 C 1.65 -2.38 4.36 0.3 7.66 0.3 L 8.38 0.3 C 11.68 0.3 14.39 -2.38 14.39 -5.68 C 14.39 -6.37 13.83 -6.9 13.17 -6.9 C 12.47 -6.9 11.95 -6.37 11.95 -5.68 C 11.95 -3.73 10.33 -2.11 8.38 -2.11 L 7.66 -2.11 C 5.68 -2.11 4.09 -3.73 4.09 -5.68 L 4.09 -17.29 C 4.09 -19.27 5.68 -20.86 7.66 -20.86 L 8.38 -20.86 C 10.33 -20.86 11.95 -19.27 11.95 -17.29 C 11.95 -16.63 12.47 -16.07 13.17 -16.07 C 13.83 -16.07 14.39 -16.63 14.39 -17.29 C 14.39 -20.59 11.68 -23.3 8.38 -23.3 L 7.66 -23.3 C 4.36 -23.3 1.65 -20.59 1.65 -17.29 Z M 30.26 -21.81 L 30.26 -1.22 C 30.26 -0.56 30.82 0 31.48 0 L 40.46 0 C 41.12 0 41.68 -0.56 41.68 -1.22 C 41.68 -1.88 41.12 -2.44 40.46 -2.44 L 32.7 -2.44 L 32.7 -21.81 C 32.7 -22.47 32.14 -23 31.48 -23 C 30.82 -23 30.26 -22.47 30.26 -21.81 Z M 57.55 -21.81 L 57.55 -1.22 C 57.55 -0.56 58.11 0 58.77 0 C 59.43 0 59.99 -0.56 59.99 -1.22 L 59.99 -21.81 C 59.99 -22.47 59.43 -23 58.77 -23 C 58.11 -23 57.55 -22.47 57.55 -21.81 Z M 75.87 -21.19 L 75.87 -1.22 C 75.87 -0.56 76.43 0 77.09 0 C 77.75 0 78.31 -0.56 78.31 -1.22 L 78.31 -18.94 L 83.09 -3.5 C 83.09 -3.47 83.13 -3.43 83.13 -3.43 C 83.62 -2.21 84.78 -1.42 86.06 -1.42 C 87.35 -1.42 88.51 -2.21 89 -3.43 C 89 -3.43 89.03 -3.47 89.03 -3.5 L 93.82 -18.94 L 93.82 -1.22 C 93.82 -0.56 94.38 0 95.04 0 C 95.73 0 96.26 -0.56 96.26 -1.22 L 96.26 -21.19 C 96.26 -22.37 95.34 -23.3 94.15 -23.3 C 93.29 -23.3 92.53 -22.8 92.23 -21.98 C 92.2 -21.95 92.2 -21.91 92.2 -21.88 L 86.72 -4.29 C 86.56 -3.89 86.2 -3.86 86.06 -3.86 C 85.93 -3.86 85.57 -3.89 85.4 -4.29 L 79.93 -21.88 C 79.93 -21.91 79.93 -21.95 79.89 -21.98 C 79.6 -22.8 78.84 -23.3 77.98 -23.3 C 76.79 -23.3 75.87 -22.37 75.87 -21.19 Z M 112.13 -21.81 L 112.13 -1.22 C 112.13 -0.56 112.7 0 113.36 0 L 118.17 0 C 122.03 0 125.17 -3.14 125.17 -7.03 C 125.17 -9.6 123.78 -11.85 121.7 -13.07 C 122.86 -14.12 123.59 -15.64 123.59 -17.29 C 123.59 -20.46 121.04 -23 117.88 -23 L 113.36 -23 C 112.7 -23 112.13 -22.47 112.13 -21.81 Z M 118.17 -2.44 L 114.58 -2.44 L 114.58 -11.58 L 118.17 -11.62 C 120.68 -11.65 122.76 -9.54 122.76 -7.03 C 122.76 -4.49 120.68 -2.44 118.17 -2.44 Z M 117.88 -14.03 L 114.58 -14.03 L 114.58 -20.59 L 117.84 -20.59 C 119.69 -20.59 121.14 -19.11 121.14 -17.29 C 121.14 -15.51 119.69 -14.03 117.88 -14.03 Z M 168.5 0 C 169.16 0 169.72 -0.56 169.72 -1.22 L 169.72 -10.3 L 177.57 -10.3 L 177.57 -1.22 C 177.57 -0.56 178.1 0 178.79 0 C 179.45 0 180.02 -0.56 180.02 -1.22 L 180.02 -21.81 C 180.02 -22.47 179.45 -23 178.79 -23 C 178.1 -23 177.57 -22.47 177.57 -21.81 L 177.57 -12.74 L 169.72 -12.74 L 169.72 -21.81 C 169.72 -22.47 169.16 -23 168.5 -23 C 167.84 -23 167.28 -22.47 167.28 -21.81 L 167.28 -1.22 C 167.28 -0.56 167.84 0 168.5 0 Z M 195.89 -21.81 L 195.89 -1.22 C 195.89 -0.56 196.45 0 197.11 0 C 197.77 0 198.33 -0.56 198.33 -1.22 L 198.33 -21.81 C 198.33 -22.47 197.77 -23 197.11 -23 C 196.45 -23 195.89 -22.47 195.89 -21.81 Z M 214.2 -17.29 L 214.2 -5.68 C 214.2 -2.38 216.91 0.3 220.21 0.3 L 220.94 0.3 C 224.24 0.3 226.94 -2.38 226.94 -5.68 L 226.94 -10.56 C 226.94 -11.25 226.38 -11.78 225.72 -11.78 L 221.23 -11.78 C 220.54 -11.78 220.01 -11.25 220.01 -10.56 C 220.01 -9.9 220.54 -9.37 221.23 -9.37 L 224.5 -9.37 L 224.5 -5.68 C 224.5 -3.73 222.88 -2.11 220.94 -2.11 L 220.21 -2.11 C 218.23 -2.11 216.65 -3.73 216.65 -5.68 L 216.65 -17.29 C 216.65 -19.27 218.23 -20.86 220.21 -20.86 L 220.94 -20.86 C 222.88 -20.86 224.5 -19.27 224.5 -17.29 C 224.5 -16.63 225.03 -16.07 225.72 -16.07 C 226.38 -16.07 226.94 -16.63 226.94 -17.29 C 226.94 -20.59 224.24 -23.3 220.94 -23.3 L 220.21 -23.3 C 216.91 -23.3 214.2 -20.59 214.2 -17.29 Z M 244.04 0 C 244.7 0 245.26 -0.56 245.26 -1.22 L 245.26 -10.3 L 253.11 -10.3 L 253.11 -1.22 C 253.11 -0.56 253.64 0 254.33 0 C 254.99 0 255.55 -0.56 255.55 -1.22 L 255.55 -21.81 C 255.55 -22.47 254.99 -23 254.33 -23 C 253.64 -23 253.11 -22.47 253.11 -21.81 L 253.11 -12.74 L 245.26 -12.74 L 245.26 -21.81 C 245.26 -22.47 244.7 -23 244.04 -23 C 243.38 -23 242.81 -22.47 242.81 -21.81 L 242.81 -1.22 C 242.81 -0.56 243.38 0 244.04 0 Z M 271.43 -21.81 L 271.43 -1.22 C 271.43 -0.56 271.99 0 272.65 0 L 281.62 0 C 282.28 0 282.84 -0.56 282.84 -1.22 C 282.84 -1.88 282.28 -2.44 281.62 -2.44 L 273.87 -2.44 L 273.87 -11.62 L 279.02 -11.62 C 279.68 -11.62 280.24 -12.14 280.24 -12.8 C 280.24 -13.5 279.68 -14.03 279.02 -14.03 L 273.87 -14.03 L 273.87 -20.59 L 281.62 -20.59 C 282.28 -20.59 282.84 -21.12 282.84 -21.81 C 282.84 -22.47 282.28 -23 281.62 -23 L 272.65 -23 C 271.99 -23 271.43 -22.47 271.43 -21.81 Z M 298.72 -21.81 L 298.72 -1.22 C 298.72 -0.56 299.28 0 299.94 0 C 300.6 0 301.16 -0.56 301.16 -1.22 L 301.16 -8.98 L 304.82 -8.98 C 305.84 -8.98 306.77 -8.35 307.13 -7.43 L 309.84 -0.76 C 310.04 -0.3 310.5 0 310.99 0 C 311.12 0 311.29 -0.03 311.42 -0.1 C 312.02 -0.4 312.38 -1.06 312.11 -1.68 L 309.38 -8.32 C 309.11 -8.94 308.75 -9.5 308.32 -9.97 C 310.37 -11.19 311.75 -13.43 311.75 -16 C 311.75 -19.87 308.62 -23 304.76 -23 L 299.94 -23 C 299.28 -23 298.72 -22.47 298.72 -21.81 Z M 304.76 -11.42 L 301.16 -11.42 L 301.16 -20.59 L 304.76 -20.59 C 307.26 -20.59 309.34 -18.51 309.34 -16 C 309.34 -13.46 307.26 -11.42 304.76 -11.42 Z" stroke-linecap="round" />
</g>
</g>
</g>
<g transform="matrix(1.098737834374399 0.13490804254106886 -0.13490804254106886 1.098737834374399 537.0204879934929 340.20265886517325)" id="shape-6f35eb88-bb8d-4d50-ba96-f6c5b7f65bc9"  >
<g style=""  paint-order="stroke"   >
		<g transform="matrix(1 0 0 1 0 0)" id="path-01_00000074433398122241834270000009438965264600554427_"  >
<path style="stroke: none; stroke-width: 1; stroke-dasharray: none; stroke-linecap: butt; stroke-dashoffset: 0; stroke-linejoin: miter; stroke-miterlimit: 4; fill: rgb(83,166,238); fill-rule: nonzero; opacity: 1;"  paint-order="stroke"  transform=" translate(-125, -108.357195)" d="M 234.97382 29.68256 L 143.2664 140.50482 L 136.23684 125.17564999999999 L 215.25893000000002 29.682559999999995 L 202.01613000000003 29.682559999999995 L 250 0 L 248.85852 29.68256 L 234.97382 29.68256 z M 118.72188 145.05956 L 119.78243 145.05956 L 138.71865 145.05956 L 120.34688 104.99487 L 107.48016 120.54382000000001 L 118.72188 145.05956 z M 116.74593 99.45494 L 97.80971 99.45494 L 97.03105 99.45494 L 0 216.71439 L 19.71488 216.71439 L 116.74593 99.45494 z" stroke-linecap="round" />
</g>
</g>
</g>
</svg>