<?xml version="1.0" encoding="UTF-8"?>
<svg id="Layer_1" data-name="Layer 1" xmlns="http://www.w3.org/2000/svg" viewBox="0 0 151.1 309.75">
  <defs>
    <style>
      .cls-1 {
        fill: #fff;
      }

      .cls-2 {
        fill: #5f5f5f;
      }

      .cls-3 {
        fill: #3964af;
        stroke: #fff;
        stroke-miterlimit: 10;
      }
    </style>
  </defs>
  <path class="cls-3" d="m105.07,155.46c3.75,11.65,7.49,23.3,11.42,35.51,1.26.17,3.24.74,5.19.64,6.99-.37,9.11,4.33,10.11,9.8,1.74,9.61,2.47,19.46,4.89,28.88,1.68,6.52-1.25,8.82-6.12,10.74-1.42.56-2.96.81-5.15,1.39,4.75,6.57,9.5,12.39,13.32,18.77,1.77,2.96,1.51,7.07,2.58,10.53.99,3.21,1.75,7.06,3.97,9.21,7.75,7.51,7.19,11.48-2.66,15.8-2.7,1.18-5.34,3.19-7.22,5.47-5.42,6.59-13.61,9.05-21.51,5.26-1.97-.94-3-3.85-4.46-5.86,2-1.11,3.91-2.5,6.04-3.25,1.6-.57,3.49-.33,4.88-.42,5.65-11.78-.19-20.16-6.84-28.22-6.84-8.29-13.5-16.78-21.01-24.42-2.44-2.48-7.25-3.31-11.08-3.6-10.52-.78-10.49-.51-10.18-10.58.14-4.52.02-9.04.02-13.56-.71-.1-1.42-.2-2.13-.31-1.25,6.23-2.53,12.46-3.72,18.7-.24,1.24.39,3.19-.27,3.73-10.25,8.33-9.13,22.59-16.86,32.22-.62.77.07,2.64.23,3.99,1.21,9.92-2.47,13.3-11.67,9.15-6.97-3.14-13.3-8-19.32-12.83-1.99-1.6-2.1-5.52-3.07-8.38,3.04-.54,6.29-2.04,9.07-1.43,5.67,1.26,8.34-2.1,10.17-5.93,2.63-5.52,4.21-11.52,6.44-17.24,3.84-9.84,5.93-19.72,6.22-30.55.26-9.76,4.49-19.41,7.03-29.1.51-1.93,1.27-3.79,1.94-5.78-5.9-.33-11.36-.32-16.74-1.04-5.42-.72-7.68-3.87-6.64-9.71,2.41-13.48,4.4-27.03,6.5-40.57.33-2.14.33-4.32.56-7.64-7.58,3.28-13.85,6.58-20.5,8.64-3.55,1.1-8.44,1.33-11.49-.33-3.09-1.68-5.48-5.94-6.47-9.54-.4-1.45,3.48-5.59,5.88-6.04,14.11-2.67,18.7-14.89,25.25-24.8,3.16-4.78,3.63-11.26,6.3-16.47,1.69-3.29,4.71-6.59,7.97-8.23,6.25-3.14,12.86-4.98,18.09-10.44,5.38-5.6,15.77-4.55,22.35-.47,4.77,2.96,10.36,4.83,15.8,6.43,5.63,1.65,8.39,5.16,9.24,10.64.35,2.26.98,4.52,1,6.78.14,25.37.34,50.73.02,76.09-.03,2.73-3.27,5.41-5.01,8.12-.78.07-1.56.14-2.34.21Z"/>
  <path class="cls-3" d="m103.27,170.5c-6.9,1.13-8.37,4.93-6.23,15.45q9.57-3.2,6.23-15.45Z"/>
  <path class="cls-2" d="m89.23,19.8c-.64,5.1-.79,8.81-1.63,12.35-1.17,4.93-2.49,9.35-9.71,8.51-3.69-.43-8.32,1.45-11.49,3.73-5.97,4.28-9.54,1.17-11.19-3.58-2.44-7.03-3.54-14.55-4.9-21.92-.52-2.85-.92-6.08-.1-8.74C52.1,4.02,56.15-.24,63.17.01c9.06.32,18.96-.82,23.46,9.97,1.46,3.49,1.98,7.38,2.6,9.82Z"/>
  <path class="cls-1" d="m103.27,170.5q3.34,12.25-6.23,15.45c-2.14-10.52-.67-14.32,6.23-15.45Z"/>
</svg>