<?xml version="1.0" encoding="utf-8"?>
<!-- Generator: Adobe Illustrator 22.0.1, SVG Export Plug-In . SVG Version: 6.00 Build 0)  -->
<svg version="1.1" id="Layer_1" xmlns="http://www.w3.org/2000/svg" xmlns:xlink="http://www.w3.org/1999/xlink" x="0px" y="0px"
	 width="250px" height="250px" viewBox="0 0 250 250" enable-background="new 0 0 250 250" xml:space="preserve">
<path id="XMLID_22_" fill="#00A0DF" d="M0,0h250v250H0V0z"/>
<path fill="#FFFFFF" d="M217.35,113.15c0-3.58-2.24-6.26-4.03-8.94c-1.79-1.79-3.13-3.58-3.13-5.81c0-2.68,1.79-4.47,4.03-4.47
	c1.34,0,2.24,0.45,3.13,0.89s2.24,0.89,3.13,0.89c1.79,0,3.13-1.79,3.13-3.13c0-1.79-1.79-3.58-4.92-3.58
	c-7.16,0-13.42,8.05-13.42,14.31c0,3.58,2.24,6.26,4.03,8.5c1.34,1.79,2.68,3.58,2.68,5.37c0,2.68-2.68,4.47-4.92,4.47
	c-2.68,0-4.03-1.34-5.81-2.68c-0.89-0.89-1.79-1.79-2.68-1.79c-1.34,0-1.79,2.68-1.79,4.03c0,1.79,3.13,4.47,7.16,4.47
	C210.2,124.78,217.35,119.41,217.35,113.15 M64.85,69.32C64.4,69.32,64.4,69.32,64.85,69.32l-0.45,1.79v0.45h2.24
	C68.43,72,68.87,72,68.87,72.9c0,1.34-1.79,5.81-4.03,12.08l-1.79,5.81c-1.79,4.92-4.47,12.08-6.71,17.89
	c-2.68,7.16-4.92,12.97-4.92,13.86s0.45,1.34,2.68,1.34s3.13-0.45,3.58-1.34c4.03-12.97,14.76-27.73,20.13-27.73
	c1.79,0,2.24,0.45,2.24,2.24c0,2.68-2.24,8.05-4.92,13.42c-2.24,4.47-4.03,8.94-4.03,11.18c0,1.79,0.89,2.68,2.68,2.68
	c5.37,0,9.84-4.92,12.97-8.94l0.45-0.45l-1.34-1.34h-0.45c-1.79,1.79-4.92,4.92-5.81,4.92h-0.45v-0.89c0-0.45,0.45-1.79,1.34-3.58
	c2.24-4.92,5.81-13.42,5.81-18.34c0-4.03-1.79-6.26-5.37-6.26c-6.71,0-12.08,7.6-14.76,11.63c-0.45,0.89-1.34,1.79-1.34,1.79
	s0.45-0.89,0.89-2.68c0.89-1.79,1.79-4.47,3.13-8.05c4.92-13.42,7.16-20.13,7.16-21.02s-0.89-0.89-1.34-0.89h-9.84L64.85,69.32z
	 M49.64,116.73C50.09,116.28,50.09,116.28,49.64,116.73c0-0.45-1.34-1.34-1.34-1.34c-2.24,1.79-6.26,5.37-9.84,5.37
	c-1.34,0-2.68-0.45-3.58-1.34c-1.34-0.89-1.79-2.68-1.79-4.92c-0.45-5.37,4.47-13.86,8.94-18.78c2.68-2.68,4.92-4.03,6.26-4.03
	c1.79,0,3.13,1.34,4.47,2.68c0.89,1.34,1.79,2.24,3.13,2.24c0.45,0,1.34-0.45,1.34-0.89c0.45-0.45,0.89-1.34,0.89-1.79
	c0-2.24-2.24-5.37-7.16-5.81c-5.37,0-12.52,3.13-17.89,8.5c-4.92,4.92-7.6,11.18-7.16,16.99c0,4.92,2.68,10.29,9.84,10.29
	C42.93,124.78,48.75,118.52,49.64,116.73z M139.98,104.2c0,0.45-0.45,0.89-0.45,0.89v-0.45c0-0.45,0.45-1.79,0.89-3.58
	c0.89-3.58,1.79-8.05,1.79-9.39c0-1.79-0.89-2.68-2.68-2.68c-3.58,0-9.39,6.26-11.18,9.39l0.89,1.34l0.45-0.45l0.45-0.45
	c1.34-1.79,4.03-4.92,5.37-4.92c0.89,0,1.34,0.89,1.34,2.24c0,3.13-3.58,12.97-5.81,19.68c-1.34,3.58-2.24,6.26-2.24,6.71
	c0,0.89,0.45,0.89,0.89,0.89h3.13c0.45,0,0.89-0.45,1.34-1.34c0,0,1.34-3.58,2.24-5.37c6.26-12.52,9.39-18.78,12.08-21.47
	c1.79-1.79,3.13-2.24,4.03-2.24c0.89,0,0.89,0.45,1.34,0.89s0.89,1.34,1.79,1.34c0.45,0,1.34,0,1.79-0.45
	c0.89-0.89,1.34-1.79,1.34-3.13c0-2.24-1.79-3.13-3.13-3.13C149.37,89,145.35,93.02,139.98,104.2z M120.75,88.1
	c-0.45,0-0.89,0.45-0.89,0.89c-0.45,0.45-0.45,0.89-1.34,0.89c-0.45,0-0.89,0-1.79-0.45c-0.89,0-1.79-0.45-3.13-0.45
	c-15.65,0-23.7,21.02-23.7,28.18c0,4.92,2.68,7.16,5.37,7.16c3.13,0,7.6-0.89,13.42-9.84l1.34-2.24v0.45l-0.45,0.89
	c-0.89,1.34-2.24,4.47-2.24,7.16c0,1.34,0.45,2.24,0.89,2.68c0.45,0.45,1.34,0.89,2.24,0.89c5.37,0,9.84-7.16,11.63-9.84l-1.34-1.34
	h-0.45l-1.34,1.34c-1.79,1.79-3.58,4.47-4.92,4.47h-0.45v-0.89c0-1.79,3.58-10.29,5.81-16.99c1.79-4.92,3.58-9.39,3.58-10.29
	c0,0,0-0.89-0.45-0.89l-2.24-1.34C121.2,88.1,120.75,88.1,120.75,88.1z M96.15,115.83c0-10.29,8.05-24.15,16.1-24.15
	c2.68,0,4.03,1.34,4.03,4.03c0,4.03-10.73,23.26-17.89,23.26C97.05,119.41,96.15,118.96,96.15,115.83z M170.84,114.94
	c0,5.81,3.58,9.84,8.94,9.84c6.26,0,12.97-6.26,14.76-8.05v-0.45l-0.89-1.34h-0.45l-0.89,0.45c-2.24,1.79-5.81,4.47-8.94,4.47
	c-3.58,0-5.81-2.24-5.81-5.81c0-4.47,2.24-7.6,3.58-10.29v-0.45h3.58c5.81,0,16.55-2.68,16.55-9.39c0-2.68-2.68-5.81-7.16-5.81
	C185.15,89,170.84,102.42,170.84,114.94z M193.65,91.23c1.79,0,3.13,1.34,3.13,3.13c0,4.47-4.92,6.71-13.42,6.71
	C184.7,97.94,189.62,91.23,193.65,91.23z M168.16,115.38C168.16,115.38,168.16,114.94,168.16,115.38c0-0.45-1.34-1.79-1.34-1.79
	l-0.45,0.45c-3.13,3.13-4.47,5.37-6.26,5.37h-0.45c0,0-0.45-0.45-0.45-0.89c0-1.79,3.13-10.73,9.39-26.83l4.47-11.63
	c2.24-5.81,3.58-8.94,3.58-9.39v-0.45c0-0.45-0.45-0.45-1.34-0.45h-10.29c0,0-0.45,0-0.45,0.45v2.24h2.24
	c1.34,0.45,2.24,0.89,2.24,1.79c0,1.34-6.71,17.89-6.71,17.89c-3.58,8.94-9.84,24.6-9.84,28.18c0,1.79,0.45,3.13,0.89,3.58
	c0.89,0.89,1.79,1.34,3.13,1.34c4.03,0,8.5-5.37,11.18-8.94C167.71,116.28,168.16,115.38,168.16,115.38z M26.39,146.69
	c0,4.92,4.03,7.6,7.6,9.39l1.79,0.89c3.58,1.79,5.37,4.03,5.37,6.71c0,3.13-2.24,5.81-5.37,5.81c-4.92,0-7.6-4.92-8.94-8.05
	l-1.79,0.45c0.45,3.13,1.34,6.71,1.34,8.05h0.89l2.24,0.89c1.34,0.45,3.13,0.89,4.92,0.89c6.71,0,11.63-4.03,11.63-10.29
	c0-5.81-4.47-8.5-7.6-9.84l-1.34-0.45c-4.03-2.24-5.81-4.03-5.81-6.71s1.79-5.37,4.92-5.37c4.03,0,5.81,3.13,6.71,6.26l1.79-0.45
	c-0.45-2.68-0.89-4.92-0.89-6.71l-1.34-0.45l-0.89-0.45c-1.34-0.45-3.13-0.89-4.47-0.89C30.86,136.85,26.39,140.88,26.39,146.69z
	 M50.09,154.74c0,8.5,5.81,16.55,18.78,16.55c3.13,0,7.6-0.89,9.39-1.34c0.89-2.24,2.24-6.26,2.68-8.5L79.16,161
	c-2.68,5.37-4.92,8.05-10.73,8.05c-7.16,0-12.08-6.26-12.08-15.65c0-6.71,3.13-14.31,12.08-14.31c5.37,0,8.05,2.24,9.39,7.6h1.79
	l-0.45-2.24l-0.89-5.81h-0.89c-1.79-0.45-4.47-0.89-8.05-0.89C58.14,136.85,50.09,144.01,50.09,154.74z M118.52,137.75H104.2v1.79
	c3.58,0.45,4.03,0.45,4.03,6.26v6.71H93.02v-6.71c0-5.37,0.45-5.81,4.03-6.26v-1.79H82.29v1.79c4.47,0.45,4.47,0.89,4.47,6.26v17.89
	c0,5.37-0.45,5.81-4.47,6.26v1.79h14.76v-1.79c-3.58-0.45-4.47-0.45-4.47-6.26v-8.5h15.21v8.5c0,5.37-0.45,5.81-4.47,6.26v1.79
	h14.76v-1.79c-4.03-0.45-4.47-0.45-4.47-6.26V145.8c0-5.37,0.45-5.81,4.47-6.26C118.07,139.53,118.52,137.75,118.52,137.75z
	 M169.05,137.75h-11.63v1.79h1.79c0.89,0,1.34,0.45,1.79,0.45c0,0.45,0.45,0.45,0.45,0.89c0,0.45,0,1.34-0.45,2.24
	c0,0.45-2.68,11.63-4.92,18.78c-0.45-0.89-8.94-23.7-8.94-23.7h-2.24c0,0-7.6,23.7-7.6,24.15c-0.45-0.89-5.81-19.68-5.81-19.68
	c0-0.89-0.45-1.34-0.45-1.79v-0.89c0.45-0.45,0.89-0.45,1.79-0.45h1.79v-1.34h-13.86v1.79c2.68,0.45,3.58,0.45,4.92,4.92l8.5,26.83
	h2.24c0,0,7.6-23.26,8.05-23.7c0.45,0.89,8.5,23.7,8.5,23.7h2.24c4.47-15.65,8.5-26.39,8.5-26.83c1.79-4.47,2.24-4.92,5.37-4.92
	C169.05,139.98,169.05,137.75,169.05,137.75z M178,145.8c0,0,3.58,10.73,4.03,10.73h-7.6C173.97,156.53,178,145.8,178,145.8z
	 M184.26,146.69l-3.58-9.39l-2.24,0.45l-10.29,26.39c-1.79,4.47-2.24,4.92-5.37,4.92v1.79h11.63v-1.79h-1.34
	c-0.89,0-1.79-0.45-1.79-0.89v-0.89c0-0.45,0-0.89,0.45-1.79l0.45-0.89c0.45-1.79,1.34-4.47,1.79-5.37h9.39
	c0.89,2.68,2.24,5.81,2.68,7.16c0,0.45,0.45,0.89,0.45,1.34v0.45c0,0.45-0.45,0.45-1.34,0.45l-1.34,0.45v1.34h13.42v-1.79
	c-2.68-0.45-3.58-0.45-5.37-4.92L184.26,146.69L184.26,146.69z M207.96,142.22c0-1.34,0-2.24,0.45-2.24h2.24
	c1.34,0,6.26,0.45,6.26,6.26c0,4.03-2.68,6.26-7.16,6.26h-1.79C207.96,152.5,207.96,142.22,207.96,142.22z M198.57,137.75v1.79
	c3.58,0.45,4.03,0.45,4.03,6.26v17.89c0,5.37-0.45,5.81-4.47,6.26v1.79h12.52c4.03,0,7.6-0.89,9.84-2.24
	c3.13-1.79,4.47-4.47,4.47-7.6c0-4.47-3.13-7.6-8.94-8.5c2.68-0.45,7.16-2.68,7.16-7.16c0-2.68-0.89-4.47-2.68-5.81
	c-1.79-1.34-4.03-1.79-8.05-1.79h-13.86L198.57,137.75z M209.75,153.85c5.81,0,8.94,2.68,8.94,7.6s-3.58,7.16-6.71,7.16
	c-1.34,0-2.24,0-2.68-0.45c-0.89-0.89-0.89-2.24-0.89-4.92v-8.94C208.41,153.85,209.75,153.85,209.75,153.85z"/>
</svg>
